<svg width="384" height="512" viewBox="0 0 384 512" fill="none" xmlns="http://www.w3.org/2000/svg">
<path d="M192 0C227.199 0 256 28.799 256 64C256 93.76 235.52 118.719 208 125.76C202.881 127.36 197.439 128 192 128C186.561 128 181.119 127.359 176 125.76C148.48 118.719 128 93.76 128 64C128 28.799 156.801 0 192 0ZM176 91.52C180.801 94.4 186.24 96 192 96C197.76 96 203.199 94.4 208 91.52C217.6 86.081 224 75.84 224 64C224 46.4 209.6 32 192 32C174.4 32 160 46.4 160 64C160 75.84 166.4 86.08 176 91.52Z" fill="url(#paint0_linear)"/>
<path d="M208 125.76C202.881 127.36 197.439 128 192 128C197.439 128 202.881 128.32 208 128.639V125.76Z" fill="url(#paint1_linear)" fill-opacity="0.67"/>
<path d="M176 80V91.52C180.801 94.4 186.24 96 192 96C197.76 96 203.199 94.4 208 91.52V80C208 71.039 200.961 64 192 64C183.039 64 176 71.039 176 80Z" fill="url(#paint2_linear)" fill-opacity="0.67"/>
<path d="M192 128C186.561 128 181.119 127.359 176 125.76V128.639C181.119 128.32 186.561 128 192 128Z" fill="url(#paint3_linear)" fill-opacity="0.67"/>
<path d="M192 512C85.961 512 0 426.039 0 320C0 213.961 85.961 128 192 128C298.039 128 384 213.961 384 320C384 426.039 298.039 512 192 512Z" fill="url(#paint4_linear)"/>
<path d="M192 480C103.634 480 32 408.366 32 320C32 231.634 103.634 160 192 160C280.366 160 352 231.634 352 320C352 408.366 280.366 480 192 480Z" fill="#FAF7F2"/>
<path d="M208 202C208 196.477 203.523 192 198 192H186C180.477 192 176 196.477 176 202V214C176 219.523 180.477 224 186 224H198C203.523 224 208 219.523 208 214V202Z" fill="url(#paint5_linear)" fill-opacity="0.67"/>
<path d="M208 426C208 420.477 203.523 416 198 416H186C180.477 416 176 420.477 176 426V438C176 443.523 180.477 448 186 448H198C203.523 448 208 443.523 208 438V426Z" fill="url(#paint6_linear)" fill-opacity="0.67"/>
<path d="M320 314C320 308.477 315.523 304 310 304H298C292.477 304 288 308.477 288 314V326C288 331.523 292.477 336 298 336H310C315.523 336 320 331.523 320 326V314Z" fill="url(#paint7_linear)" fill-opacity="0.67"/>
<path d="M96 314C96 308.477 91.5228 304 86 304H74C68.4772 304 64 308.477 64 314V326C64 331.523 68.4772 336 74 336H86C91.5228 336 96 331.523 96 326V314Z" fill="url(#paint8_linear)" fill-opacity="0.67"/>
<path d="M259.882 252.118L214.627 342.627L124.118 387.882L169.373 297.373L259.882 252.118Z" fill="#18A0FB"/>
<path d="M259.882 252.118L214.627 342.627L124.118 387.882L169.373 297.373L259.882 252.118Z" fill="url(#paint9_linear)"/>
<defs>
<linearGradient id="paint0_linear" x1="192" y1="0" x2="192" y2="128" gradientUnits="userSpaceOnUse">
<stop stop-color="#7FFF7F"/>
<stop offset="1" stop-color="#7FF0FF"/>
</linearGradient>
<linearGradient id="paint1_linear" x1="200" y1="127.2" x2="200" y2="128.639" gradientUnits="userSpaceOnUse">
<stop stop-color="#7FF0FF"/>
<stop offset="1" stop-color="#7FADFF"/>
</linearGradient>
<linearGradient id="paint2_linear" x1="192" y1="80" x2="192" y2="96" gradientUnits="userSpaceOnUse">
<stop stop-color="#7FF0FF"/>
<stop offset="1" stop-color="#7FADFF"/>
</linearGradient>
<linearGradient id="paint3_linear" x1="184" y1="127.2" x2="184" y2="128.639" gradientUnits="userSpaceOnUse">
<stop stop-color="#7FF0FF"/>
<stop offset="1" stop-color="#7FADFF"/>
</linearGradient>
<linearGradient id="paint4_linear" x1="192" y1="128" x2="192" y2="512" gradientUnits="userSpaceOnUse">
<stop stop-color="#7FFF7F"/>
<stop offset="1" stop-color="#7FF0FF"/>
</linearGradient>
<linearGradient id="paint5_linear" x1="192" y1="192" x2="192" y2="224" gradientUnits="userSpaceOnUse">
<stop stop-color="#7FF0FF"/>
<stop offset="1" stop-color="#7FADFF"/>
</linearGradient>
<linearGradient id="paint6_linear" x1="192" y1="416" x2="192" y2="448" gradientUnits="userSpaceOnUse">
<stop stop-color="#7FF0FF"/>
<stop offset="1" stop-color="#7FADFF"/>
</linearGradient>
<linearGradient id="paint7_linear" x1="304" y1="320" x2="304" y2="336" gradientUnits="userSpaceOnUse">
<stop stop-color="#7FF0FF"/>
<stop offset="1" stop-color="#7FADFF"/>
</linearGradient>
<linearGradient id="paint8_linear" x1="80" y1="304" x2="80" y2="336" gradientUnits="userSpaceOnUse">
<stop stop-color="#7FF0FF"/>
<stop offset="1" stop-color="#7FADFF"/>
</linearGradient>
<linearGradient id="paint9_linear" x1="192" y1="252.118" x2="192" y2="387.882" gradientUnits="userSpaceOnUse">
<stop stop-color="#7FF0FF"/>
<stop offset="1" stop-color="white" stop-opacity="0"/>
</linearGradient>
</defs>
</svg>
