<svg width="967" height="705" viewBox="0 0 967 705" fill="none" xmlns="http://www.w3.org/2000/svg">
<path d="M49.1211 651.947H20.9961V681H6.34766V609.906H52.6367V621.771H20.9961V640.131H49.1211V651.947ZM75.0977 681H60.9375V628.168H75.0977V681ZM60.1074 614.496C60.1074 612.38 60.8073 610.639 62.207 609.271C63.6393 607.904 65.5762 607.221 68.0176 607.221C70.4264 607.221 72.347 607.904 73.7793 609.271C75.2116 610.639 75.9277 612.38 75.9277 614.496C75.9277 616.645 75.1953 618.402 73.7305 619.77C72.2982 621.137 70.3939 621.82 68.0176 621.82C65.6413 621.82 63.7207 621.137 62.2559 619.77C60.8236 618.402 60.1074 616.645 60.1074 614.496ZM99.7559 628.168L100.195 634.271C103.971 629.551 109.033 627.191 115.381 627.191C120.98 627.191 125.146 628.835 127.881 632.123C130.615 635.411 132.015 640.326 132.08 646.869V681H117.969V647.211C117.969 644.216 117.318 642.051 116.016 640.717C114.714 639.35 112.549 638.666 109.521 638.666C105.55 638.666 102.572 640.359 100.586 643.744V681H86.4746V628.168H99.7559ZM140.625 654.193C140.625 645.958 142.464 639.398 146.143 634.516C149.854 629.633 154.915 627.191 161.328 627.191C166.471 627.191 170.719 629.112 174.072 632.953V606H188.232V681H175.488L174.805 675.385C171.289 679.779 166.764 681.977 161.23 681.977C155.013 681.977 150.016 679.535 146.24 674.652C142.497 669.737 140.625 662.917 140.625 654.193ZM154.736 655.219C154.736 660.167 155.599 663.959 157.324 666.596C159.049 669.232 161.556 670.551 164.844 670.551C169.206 670.551 172.282 668.712 174.072 665.033V644.184C172.314 640.505 169.271 638.666 164.941 638.666C158.138 638.666 154.736 644.184 154.736 655.219ZM224.609 641.938L239.404 609.906H255.42L232.08 655.219V681H217.188V655.219L193.848 609.906H209.912L224.609 641.938ZM255.566 654.096C255.566 648.855 256.576 644.184 258.594 640.082C260.612 635.98 263.509 632.807 267.285 630.561C271.094 628.314 275.505 627.191 280.518 627.191C287.646 627.191 293.457 629.372 297.949 633.734C302.474 638.096 304.997 644.021 305.518 651.508L305.615 655.121C305.615 663.227 303.353 669.737 298.828 674.652C294.303 679.535 288.232 681.977 280.615 681.977C272.998 681.977 266.911 679.535 262.354 674.652C257.829 669.77 255.566 663.129 255.566 654.73V654.096ZM269.678 655.121C269.678 660.134 270.622 663.975 272.51 666.645C274.398 669.281 277.1 670.6 280.615 670.6C284.033 670.6 286.702 669.298 288.623 666.693C290.544 664.057 291.504 659.857 291.504 654.096C291.504 649.18 290.544 645.372 288.623 642.67C286.702 639.968 284.001 638.617 280.518 638.617C277.067 638.617 274.398 639.968 272.51 642.67C270.622 645.339 269.678 649.49 269.678 655.121ZM345.947 675.629C342.464 679.861 337.646 681.977 331.494 681.977C325.83 681.977 321.501 680.349 318.506 677.094C315.544 673.839 314.03 669.07 313.965 662.787V628.168H328.076V662.299C328.076 667.8 330.583 670.551 335.596 670.551C340.381 670.551 343.669 668.891 345.459 665.57V628.168H359.619V681H346.338L345.947 675.629ZM399.951 641.4C398.031 641.14 396.338 641.01 394.873 641.01C389.535 641.01 386.035 642.816 384.375 646.43V681H370.264V628.168H383.594L383.984 634.467C386.816 629.617 390.739 627.191 395.752 627.191C397.314 627.191 398.779 627.403 400.146 627.826L399.951 641.4ZM422.363 655.951V681H407.715V609.906H435.449C440.788 609.906 445.475 610.883 449.512 612.836C453.581 614.789 456.706 617.572 458.887 621.186C461.068 624.766 462.158 628.852 462.158 633.441C462.158 640.408 459.766 645.909 454.98 649.945C450.228 653.949 443.636 655.951 435.205 655.951H422.363ZM422.363 644.086H435.449C439.323 644.086 442.269 643.174 444.287 641.352C446.338 639.529 447.363 636.924 447.363 633.539C447.363 630.056 446.338 627.24 444.287 625.092C442.236 622.943 439.404 621.837 435.791 621.771H422.363V644.086ZM501.025 641.4C499.105 641.14 497.412 641.01 495.947 641.01C490.609 641.01 487.109 642.816 485.449 646.43V681H471.338V628.168H484.668L485.059 634.467C487.891 629.617 491.813 627.191 496.826 627.191C498.389 627.191 499.854 627.403 501.221 627.826L501.025 641.4ZM503.906 654.096C503.906 648.855 504.915 644.184 506.934 640.082C508.952 635.98 511.849 632.807 515.625 630.561C519.434 628.314 523.844 627.191 528.857 627.191C535.986 627.191 541.797 629.372 546.289 633.734C550.814 638.096 553.337 644.021 553.857 651.508L553.955 655.121C553.955 663.227 551.693 669.737 547.168 674.652C542.643 679.535 536.572 681.977 528.955 681.977C521.338 681.977 515.251 679.535 510.693 674.652C506.169 669.77 503.906 663.129 503.906 654.73V654.096ZM518.018 655.121C518.018 660.134 518.962 663.975 520.85 666.645C522.738 669.281 525.439 670.6 528.955 670.6C532.373 670.6 535.042 669.298 536.963 666.693C538.883 664.057 539.844 659.857 539.844 654.096C539.844 649.18 538.883 645.372 536.963 642.67C535.042 639.968 532.34 638.617 528.857 638.617C525.407 638.617 522.738 639.968 520.85 642.67C518.962 645.339 518.018 649.49 518.018 655.121ZM560.596 654.193C560.596 646.088 562.516 639.561 566.357 634.613C570.231 629.665 575.439 627.191 581.982 627.191C587.777 627.191 592.285 629.177 595.508 633.148L596.094 628.168H608.887V679.242C608.887 683.865 607.829 687.885 605.713 691.303C603.63 694.721 600.684 697.325 596.875 699.115C593.066 700.906 588.607 701.801 583.496 701.801C579.622 701.801 575.846 701.02 572.168 699.457C568.49 697.927 565.706 695.941 563.818 693.5L570.068 684.906C573.584 688.845 577.848 690.814 582.861 690.814C586.605 690.814 589.518 689.805 591.602 687.787C593.685 685.801 594.727 682.969 594.727 679.291V676.459C591.471 680.137 587.191 681.977 581.885 681.977C575.537 681.977 570.394 679.503 566.455 674.555C562.549 669.574 560.596 662.982 560.596 654.779V654.193ZM574.707 655.219C574.707 660.004 575.667 663.764 577.588 666.498C579.508 669.2 582.145 670.551 585.498 670.551C589.795 670.551 592.871 668.939 594.727 665.717V643.5C592.839 640.277 589.795 638.666 585.596 638.666C582.21 638.666 579.541 640.049 577.588 642.816C575.667 645.583 574.707 649.717 574.707 655.219ZM649.463 641.4C647.542 641.14 645.85 641.01 644.385 641.01C639.046 641.01 635.547 642.816 633.887 646.43V681H619.775V628.168H633.105L633.496 634.467C636.328 629.617 640.251 627.191 645.264 627.191C646.826 627.191 648.291 627.403 649.658 627.826L649.463 641.4ZM685.449 681C684.798 679.73 684.326 678.152 684.033 676.264C680.615 680.072 676.172 681.977 670.703 681.977C665.527 681.977 661.23 680.479 657.812 677.484C654.427 674.49 652.734 670.714 652.734 666.156C652.734 660.557 654.801 656.26 658.936 653.266C663.102 650.271 669.108 648.757 676.953 648.725H683.447V645.697C683.447 643.256 682.812 641.303 681.543 639.838C680.306 638.373 678.337 637.641 675.635 637.641C673.258 637.641 671.387 638.21 670.02 639.35C668.685 640.489 668.018 642.051 668.018 644.037H653.906C653.906 640.977 654.85 638.145 656.738 635.541C658.626 632.937 661.296 630.902 664.746 629.438C668.197 627.94 672.07 627.191 676.367 627.191C682.878 627.191 688.037 628.835 691.846 632.123C695.687 635.378 697.607 639.968 697.607 645.893V668.793C697.64 673.806 698.34 677.598 699.707 680.17V681H685.449ZM673.779 671.186C675.863 671.186 677.783 670.73 679.541 669.818C681.299 668.874 682.601 667.621 683.447 666.059V656.977H678.174C671.11 656.977 667.35 659.418 666.895 664.301L666.846 665.131C666.846 666.889 667.464 668.337 668.701 669.477C669.938 670.616 671.631 671.186 673.779 671.186ZM721.68 628.168L722.119 634.076C725.863 629.486 730.924 627.191 737.305 627.191C744.108 627.191 748.779 629.877 751.318 635.248C755.029 629.877 760.319 627.191 767.188 627.191C772.917 627.191 777.181 628.868 779.98 632.221C782.78 635.541 784.18 640.554 784.18 647.26V681H770.02V647.309C770.02 644.314 769.434 642.133 768.262 640.766C767.09 639.366 765.023 638.666 762.061 638.666C757.829 638.666 754.899 640.684 753.271 644.721L753.32 681H739.209V647.357C739.209 644.298 738.607 642.084 737.402 640.717C736.198 639.35 734.147 638.666 731.25 638.666C727.246 638.666 724.349 640.326 722.559 643.646V681H708.447V628.168H721.68ZM808.301 628.168L808.74 634.076C812.484 629.486 817.546 627.191 823.926 627.191C830.729 627.191 835.4 629.877 837.939 635.248C841.65 629.877 846.94 627.191 853.809 627.191C859.538 627.191 863.802 628.868 866.602 632.221C869.401 635.541 870.801 640.554 870.801 647.26V681H856.641V647.309C856.641 644.314 856.055 642.133 854.883 640.766C853.711 639.366 851.644 638.666 848.682 638.666C844.45 638.666 841.52 640.684 839.893 644.721L839.941 681H825.83V647.357C825.83 644.298 825.228 642.084 824.023 640.717C822.819 639.35 820.768 638.666 817.871 638.666C813.867 638.666 810.97 640.326 809.18 643.646V681H795.068V628.168H808.301ZM906.006 681.977C898.258 681.977 891.943 679.6 887.061 674.848C882.21 670.095 879.785 663.764 879.785 655.854V654.486C879.785 649.18 880.811 644.444 882.861 640.277C884.912 636.078 887.809 632.855 891.553 630.609C895.329 628.331 899.626 627.191 904.443 627.191C911.67 627.191 917.35 629.47 921.484 634.027C925.651 638.585 927.734 645.046 927.734 653.412V659.174H894.092C894.548 662.624 895.915 665.391 898.193 667.475C900.505 669.558 903.418 670.6 906.934 670.6C912.37 670.6 916.618 668.63 919.678 664.691L926.611 672.455C924.495 675.45 921.631 677.794 918.018 679.486C914.404 681.146 910.4 681.977 906.006 681.977ZM904.395 638.617C901.595 638.617 899.316 639.561 897.559 641.449C895.833 643.337 894.727 646.039 894.238 649.555H913.867V648.432C913.802 645.307 912.956 642.898 911.328 641.205C909.701 639.48 907.389 638.617 904.395 638.617ZM965.479 641.4C963.558 641.14 961.865 641.01 960.4 641.01C955.062 641.01 951.562 642.816 949.902 646.43V681H935.791V628.168H949.121L949.512 634.467C952.344 629.617 956.266 627.191 961.279 627.191C962.842 627.191 964.307 627.403 965.674 627.826L965.479 641.4Z" fill="#18A0FB"/>
<path d="M484 0C519.199 0 548 28.799 548 64C548 93.76 527.52 118.719 500 125.76C494.881 127.36 489.439 128 484 128C478.561 128 473.119 127.359 468 125.76C440.48 118.719 420 93.76 420 64C420 28.799 448.801 0 484 0V0ZM468 91.52C472.801 94.4 478.24 96 484 96C489.76 96 495.199 94.4 500 91.52C509.6 86.081 516 75.84 516 64C516 46.4 501.6 32 484 32C466.4 32 452 46.4 452 64C452 75.84 458.4 86.08 468 91.52Z" fill="#293040"/>
<path d="M468 91.52V125.76C473.119 127.36 478.561 128 484 128C489.439 128 494.881 127.359 500 125.76V91.52C495.199 94.4 489.76 96 484 96C478.24 96 472.801 94.4 468 91.52V91.52Z" fill="#0D0D0D"/>
<path d="M500 125.76C494.881 127.36 489.439 128 484 128C489.439 128 494.881 128.32 500 128.639V125.76Z" fill="#435373"/>
<path d="M468 80V91.52C472.801 94.4 478.24 96 484 96C489.76 96 495.199 94.4 500 91.52V80C500 71.039 492.961 64 484 64C475.039 64 468 71.039 468 80Z" fill="#435373"/>
<path d="M484 128C478.561 128 473.119 127.359 468 125.76V128.639C473.119 128.32 478.561 128 484 128Z" fill="#435373"/>
<path d="M484 512C377.961 512 292 426.039 292 320C292 213.961 377.961 128 484 128C590.039 128 676 213.961 676 320C676 426.039 590.039 512 484 512Z" fill="#293040"/>
<path d="M484 480C395.634 480 324 408.366 324 320C324 231.634 395.634 160 484 160C572.366 160 644 231.634 644 320C644 408.366 572.366 480 484 480Z" fill="#435373"/>
<path d="M500 192H468V224H500V192Z" fill="#293040" fill-opacity="0.67"/>
<path d="M500 416H468V448H500V416Z" fill="#293040" fill-opacity="0.67"/>
<path d="M612 304H580V336H612V304Z" fill="#293040" fill-opacity="0.67"/>
<path d="M388 304H356V336H388V304Z" fill="#293040" fill-opacity="0.67"/>
<path d="M551.882 252.118L506.627 342.627L416.118 387.882L461.373 297.373L551.882 252.118Z" fill="#18A0FB"/>
</svg>
