<?xml version="1.0" encoding="utf-8"?>
<!-- Generator: Adobe Illustrator 23.0.0, SVG Export Plug-In . SVG Version: 6.00 Build 0)  -->
<svg version="1.1" id="Capa_1" xmlns="http://www.w3.org/2000/svg" xmlns:xlink="http://www.w3.org/1999/xlink" x="0px" y="0px"
	 viewBox="0 0 459 459" style="enable-background:new 0 0 459 459;" xml:space="preserve">
<style type="text/css">
	.st0{fill:#F7F7F7;}
</style>
<g>
	<g id="menu">
		<path class="st0" d="M8,382.5h443c4.4,0,8-3.6,8-8v-34.9c0-4.4-3.6-8-8-8H8c-4.4,0-8,3.6-8,8v34.9C0,378.9,3.6,382.5,8,382.5z
			 M8,255h443c4.4,0,8-3.6,8-8v-35c0-4.4-3.6-8-8-8H8c-4.4,0-8,3.6-8,8v35C0,251.4,3.6,255,8,255z M0,84.5v34.9c0,4.4,3.6,8,8,8h443
			c4.4,0,8-3.6,8-8V84.5c0-4.4-3.6-8-8-8H8C3.6,76.5,0,80.1,0,84.5z"/>
	</g>
</g>
</svg>
